<svg width="184" height="227" viewBox="0 0 184 227" fill="none" xmlns="http://www.w3.org/2000/svg">
<ellipse cx="79.0144" cy="215.679" rx="39.6245" ry="11.3213" fill="#141A3B"/>
<path d="M11.8562 172.964C10.0509 173.564 6.07922 174.302 4.63498 172.449C2.82967 170.132 2.57177 168.588 3.60337 165.757C4.42866 163.492 15.6388 140.619 21.1406 129.465C10.2228 114.022 -5.2684 74.2299 20.109 38.6075C45.4865 2.98518 83.2948 0.771651 99.0267 4.11768C110.46 5.31882 137.299 13.8984 153.186 38.6075C169.073 63.3167 168.23 86.6531 165.823 95.2326C165.049 100.724 161.439 115.257 153.186 129.465C150.651 133.829 146.155 139 140.069 143.956C131.453 150.972 119.65 157.556 105.713 160.808C105.292 160.906 104.868 161.002 104.443 161.094C98.4751 162.387 92.1285 163.064 85.4837 162.905L87.1457 181.31L88.3141 194.249L90.0986 194.844C91.3134 195.249 92.4123 195.958 93.2 196.967C96.2646 200.895 100.04 207.43 97.2094 210.827C93.9747 214.708 71.0626 212.444 60.0108 210.827L54.8892 182.372L49.7676 153.917L11.8562 172.964Z" fill="#006EAD"/>
<path d="M104.443 161.094L165.823 184.141C172.872 177.267 185.596 161.336 180.097 152.603C174.599 143.869 164.733 146.942 164.733 151.39L166.754 157.051C158.803 153.007 149.368 148.56 140.069 143.956C131.453 150.972 119.65 157.556 105.713 160.808C105.292 160.906 104.868 161.002 104.443 161.094Z" fill="#006EAD"/>
<path d="M85.4837 162.905L87.1457 181.31L88.3141 194.249L90.0986 194.844C91.3134 195.249 92.4123 195.958 93.2 196.967C96.2646 200.895 100.04 207.43 97.2094 210.827C93.9747 214.708 71.0626 212.444 60.0108 210.827L54.8892 182.372L49.7676 153.917L11.8562 172.963C10.0509 173.564 6.07922 174.302 4.63498 172.449C2.82967 170.132 2.57177 168.588 3.60337 165.757C4.42866 163.492 15.6388 140.619 21.1406 129.465C10.2228 114.022 -5.2684 74.2299 20.109 38.6075C45.4865 2.98518 83.2948 0.771651 99.0267 4.11768C110.46 5.31882 137.299 13.8984 153.186 38.6075C169.073 63.3167 168.23 86.6531 165.823 95.2326C165.049 100.724 161.439 115.257 153.186 129.465C150.651 133.829 146.155 139 140.069 143.956M85.4837 162.905C92.1285 163.065 98.4751 162.387 104.443 161.094M85.4837 162.905C92.6021 163.076 99.3782 162.286 105.713 160.808M104.443 161.094L165.823 184.141C172.872 177.267 185.596 161.336 180.097 152.603C174.599 143.869 164.733 146.942 164.733 151.39L166.754 157.051C158.803 153.007 149.368 148.56 140.069 143.956M104.443 161.094C104.868 161.002 105.292 160.906 105.713 160.808M140.069 143.956C131.453 150.972 119.65 157.556 105.713 160.808" stroke="black" stroke-width="4.85198"/>
<ellipse cx="162.711" cy="204.762" rx="19.0036" ry="8.49097" fill="#141A3B"/>
<path d="M57.1804 180.906L62.4367 208.805C74.2971 210.827 97.5328 213.253 95.592 206.783C93.6512 200.314 91.2791 197.888 90.3357 197.484C89.3922 197.079 87.1819 196.19 85.888 195.866L84.675 180.906C80.0926 182.254 68.1783 184.141 57.1804 180.906Z" fill="white" stroke="white" stroke-width="0.808664"/>
<path d="M146.942 174.437L165.137 181.31C170.933 175.38 181.634 161.579 178.076 153.816C176.593 151.39 172.415 147.427 167.563 150.986C167.429 151.12 167.321 151.794 167.968 153.412C168.776 155.433 166.755 158.668 163.924 158.264L156.242 154.625C155.838 159.746 153.412 170.879 146.942 174.437Z" fill="white" stroke="white" stroke-width="0.808664"/>
<path d="M111.765 161.498L132.386 170.798L140.877 146.134C132.925 151.255 115.324 161.498 111.765 161.498Z" fill="black" stroke="black" stroke-width="0.808664"/>
<path d="M120.105 102.629C120.02 102.311 119.696 102.119 119.375 102.197L116.709 102.85L117.124 103.997L119.664 103.375C119.994 103.294 120.193 102.958 120.105 102.629Z" fill="black"/>
<path fill-rule="evenodd" clip-rule="evenodd" d="M80.0895 111.403C103.308 107.381 106.112 122.93 104.612 131.207C110.829 129.961 122.108 122.175 116.709 102.85L80.0895 111.403Z" fill="black"/>
<path d="M80.0895 111.403C80.8993 119.808 86.8638 134.887 104.612 131.207C106.112 122.93 103.308 107.381 80.0895 111.403Z" fill="white"/>
<path d="M80.0895 111.403C80.8993 119.808 86.8638 134.887 104.612 131.207M80.0895 111.403L116.709 102.85M80.0895 111.403C103.308 107.381 106.112 122.93 104.612 131.207M104.612 131.207C110.829 129.961 122.108 122.175 116.709 102.85M116.709 102.85L119.375 102.197C119.696 102.119 120.02 102.311 120.105 102.629V102.629C120.193 102.958 119.994 103.294 119.664 103.375L117.124 103.997L116.709 102.85Z" stroke="black" stroke-width="0.808664"/>
</svg>
