<svg width="306" height="62" viewBox="0 0 306 62" fill="none" xmlns="http://www.w3.org/2000/svg">
<path d="M100.196 24.0785V47.8801C100.196 48.9356 99.3405 49.7912 98.285 49.7912H89.7721C88.7166 49.7912 87.861 48.9356 87.861 47.8801V7.22632C87.861 6.17087 88.7166 5.31525 89.7721 5.31525H97.7059C98.7614 5.31525 99.617 6.17087 99.617 7.22632V13.1622H100.138C101.123 10.5755 102.773 8.52933 105.09 7.02363C107.406 5.49863 110.215 4.73614 113.516 4.73614C116.604 4.73614 119.297 5.41177 121.594 6.76303C123.892 8.1143 125.677 10.0447 126.951 12.5542C128.225 15.0444 128.862 18.0171 128.862 21.4725V47.8801C128.862 48.9356 128.007 49.7912 126.951 49.7912H118.438C117.383 49.7912 116.527 48.9356 116.527 47.8801V23.6732C116.546 20.9513 115.851 18.8279 114.442 17.3029C113.033 15.7586 111.093 14.9864 108.622 14.9864C106.962 14.9864 105.495 15.3436 104.221 16.0578C102.966 16.772 101.982 17.8145 101.267 19.185C100.573 20.5363 100.215 22.1675 100.196 24.0785Z" fill="black"/>
<path d="M169.489 15.9872C169.771 17.0588 168.942 18.0557 167.836 18.1237L160.253 18.5904C159.3 18.649 158.481 17.9715 158.037 17.1254C157.846 16.7617 157.615 16.4155 157.344 16.0868C156.707 15.2953 155.867 14.6679 154.825 14.2046C153.802 13.722 152.576 13.4808 151.147 13.4808C149.236 13.4808 147.624 13.8861 146.312 14.6969C144.999 15.4883 144.343 16.5501 144.343 17.882C144.343 18.9437 144.768 19.8413 145.617 20.5749C146.466 21.3084 147.924 21.8972 149.989 22.3412L158.039 23.9627C162.363 24.8507 165.587 26.2792 167.71 28.2481C169.833 30.2171 170.895 32.8038 170.895 36.0083C170.895 38.9231 170.036 41.4809 168.318 43.6815C166.619 45.8822 164.284 47.6002 161.311 48.8356C158.357 50.0518 154.95 50.6599 151.089 50.6599C145.202 50.6599 140.511 49.4341 137.017 46.9825C134.12 44.9221 132.222 42.2442 131.325 38.9488C131.03 37.8668 131.871 36.8553 132.991 36.7965L141.397 36.3552C142.341 36.3056 143.148 36.972 143.539 37.8333C144.015 38.8824 144.737 39.7315 145.704 40.3806C147.113 41.3072 148.918 41.7705 151.118 41.7705C153.28 41.7705 155.018 41.3554 156.33 40.5254C157.662 39.676 158.338 38.5853 158.357 37.2534C158.338 36.1338 157.865 35.2168 156.939 34.5026C156.012 33.769 154.583 33.2092 152.653 32.8231L144.951 31.2885C140.608 30.4198 137.374 28.9141 135.251 26.7714C133.147 24.6287 132.095 21.8972 132.095 18.577C132.095 15.72 132.867 13.2588 134.411 11.1933C135.975 9.12775 138.166 7.53518 140.984 6.41556C143.822 5.29594 147.142 4.73614 150.945 4.73614C156.562 4.73614 160.983 5.92332 164.206 8.29768C166.899 10.2688 168.66 12.832 169.489 15.9872Z" fill="black"/>
<path d="M183.189 49.7912C182.327 49.7912 181.571 49.2139 181.345 48.3819L170.282 7.72815C169.951 6.51267 170.866 5.31525 172.126 5.31525H180.584C181.474 5.31525 182.246 5.92962 182.446 6.79686L188.996 35.1975H189.402L196.231 6.77979C196.437 5.92079 197.205 5.31525 198.089 5.31525H207.332C208.212 5.31525 208.978 5.91601 209.188 6.77048L216.128 35.0238H216.504L222.941 6.80138C223.139 5.93196 223.912 5.31525 224.804 5.31525H233.232C234.491 5.31525 235.406 6.51182 235.076 7.72703L224.039 48.3808C223.813 49.2133 223.057 49.7912 222.195 49.7912H212.056C211.195 49.7912 210.44 49.2149 210.213 48.3839L202.953 21.82H202.403L195.143 48.3839C194.916 49.2149 194.161 49.7912 193.3 49.7912H183.189Z" fill="black"/>
<path d="M255.757 50.6599C251.182 50.6599 247.244 49.7333 243.943 47.8801C240.662 46.0076 238.133 43.363 236.357 39.9462C234.581 36.5102 233.693 32.4467 233.693 27.7559C233.693 23.1809 234.581 19.1657 236.357 15.7103C238.133 12.255 240.633 9.56208 243.857 7.6317C247.1 5.70132 250.902 4.73614 255.265 4.73614C258.199 4.73614 260.931 5.20908 263.46 6.15496C266.008 7.08154 268.228 8.48107 270.119 10.3535C272.03 12.226 273.517 14.5811 274.579 17.4187C275.64 20.2371 276.171 23.538 276.171 27.3216V28.7983C276.171 29.8538 275.315 30.7094 274.26 30.7094H238.616V23.0651H264.56C264.56 21.2891 264.174 19.7159 263.402 18.3453C262.63 16.9747 261.558 15.9034 260.188 15.1312C258.836 14.3398 257.263 13.944 255.468 13.944C253.595 13.944 251.935 14.3784 250.487 15.247C249.059 16.0964 247.939 17.245 247.129 18.6928C246.318 20.1213 245.903 21.7138 245.883 23.4705V30.7383C245.883 32.939 246.289 34.8404 247.1 36.4426C247.93 38.0448 249.098 39.2803 250.603 40.1489C252.109 41.0176 253.895 41.4519 255.96 41.4519C257.331 41.4519 258.585 41.2589 259.724 40.8728C260.863 40.4868 261.838 39.9076 262.649 39.1355C263.131 38.6758 263.546 38.1545 263.892 37.5716C264.32 36.849 265.075 36.3356 265.913 36.391L273.711 36.9055C274.872 36.9821 275.704 38.0753 275.317 39.172C274.654 41.0453 273.665 42.7318 272.349 44.2317C270.573 46.2586 268.276 47.8415 265.457 48.9804C262.658 50.1 259.425 50.6599 255.757 50.6599Z" fill="black"/>
<path d="M280.424 49.7912C279.369 49.7912 278.513 48.9356 278.513 47.8801V7.22632C278.513 6.17087 279.369 5.31525 280.424 5.31525H288.561C289.616 5.31525 290.472 6.17087 290.472 7.22632V13.0754H290.935C291.746 10.3149 293.107 8.23012 295.018 6.82095C296.929 5.39246 299.129 4.67822 301.62 4.67822C302.237 4.67822 302.903 4.71683 303.618 4.79404C303.759 4.80938 303.898 4.82586 304.033 4.84348C304.902 4.95698 305.5 5.72775 305.5 6.60469V13.6079C305.5 14.8289 304.307 15.7544 303.096 15.5945C302.073 15.4594 301.137 15.3918 300.288 15.3918C298.473 15.3918 296.852 15.7876 295.423 16.579C294.014 17.3512 292.894 18.4322 292.064 19.822C291.254 21.2119 290.848 22.8141 290.848 24.6287V47.8801C290.848 48.9356 289.993 49.7912 288.937 49.7912H280.424Z" fill="black"/>
<path fill-rule="evenodd" clip-rule="evenodd" d="M58.9522 50.6309C56.1146 50.6309 53.5858 50.1386 51.3658 49.1542C49.1459 48.1504 47.3892 46.6736 46.0959 44.7239C44.8218 42.755 44.1848 40.3034 44.1848 37.3692C44.1848 34.8983 44.6385 32.8231 45.5457 31.1437C46.453 29.4643 47.6885 28.113 49.2521 27.0899C50.8157 26.0668 52.5916 25.2947 54.5799 24.7735C56.5875 24.2523 58.6916 23.8855 60.8922 23.6732C63.479 23.4029 65.5638 23.152 67.1467 22.9203C68.7296 22.6694 69.8782 22.3026 70.5924 21.82C71.3066 21.3374 71.6638 20.6232 71.6638 19.6773V19.5035C71.6638 17.6697 71.0846 16.2508 69.9264 15.247C68.7875 14.2432 67.166 13.7414 65.0619 13.7414C62.8419 13.7414 61.0756 14.2336 59.763 15.2181C58.6898 16.0072 56.8257 15.8551 56.1213 14.7245C55.1683 13.1946 54.0081 11.7318 52.9698 10.6071C52.1328 9.70061 52.1477 8.19776 53.2138 7.5768C54.0003 7.11871 54.8418 6.71233 55.7381 6.35765C58.4407 5.27664 61.5679 4.73614 65.1198 4.73614C67.5907 4.73614 69.9554 5.02569 72.2139 5.6048C74.4918 6.18392 76.509 7.08154 78.2657 8.29768C80.0416 9.51382 81.4411 11.0774 82.4642 12.9885C83.4873 14.8803 83.9989 17.1485 83.9989 19.7931V47.8801C83.9989 48.9356 83.1433 49.7912 82.0878 49.7912H74.2119C73.1564 49.7912 72.3008 48.9356 72.3008 47.8801V43.6236H71.9533C71.2391 45.0135 70.2835 46.2393 69.0867 47.301C67.8899 48.3434 66.4517 49.1638 64.7723 49.7622C63.0929 50.3413 61.1528 50.6309 58.9522 50.6309ZM67.2915 41.0466C65.9016 41.7608 64.2994 42.1179 62.4848 42.1179C60.593 42.1179 59.0294 41.6836 57.794 40.8149C56.5778 39.9269 55.9698 38.6432 55.9698 36.9638C55.9698 35.8056 56.269 34.8404 56.8674 34.0682C57.4658 33.2768 58.3055 32.6494 59.3865 32.1861C60.4676 31.7228 61.732 31.385 63.1797 31.1727C63.8554 31.0762 64.6082 30.97 65.4383 30.8542C66.2684 30.719 67.0984 30.5743 67.9285 30.4198C68.7585 30.2461 69.5017 30.0627 70.1581 29.8697C70.8337 29.6573 71.3646 29.4257 71.7506 29.1747V33.8945C71.7506 35.4581 71.3549 36.8576 70.5634 38.0931C69.772 39.3285 68.6813 40.313 67.2915 41.0466Z" fill="black"/>
<path d="M4.41123 52.9221C3.83021 53.0104 2.58251 53.027 2.23991 52.3873C1.81165 51.5875 1.81402 51.1039 2.27633 50.2961C2.64618 49.6498 7.25661 43.2738 9.51559 40.1666C7.00077 34.8937 4.36885 21.969 13.9598 12.4539C23.5507 2.93877 35.1761 4.24494 39.79 6.08742C43.2077 7.05184 50.9287 11.0692 54.4709 19.4231C58.013 27.777 56.5345 34.8369 55.3524 37.3226C54.8293 38.9537 52.969 43.1889 49.7126 47.0818C48.7126 48.2774 47.0731 49.6162 44.9606 50.8062C41.9704 52.4906 38.0327 53.877 33.6197 54.1371C33.4862 54.145 33.3523 54.1518 33.218 54.1576C31.3335 54.2387 29.366 54.1126 27.3516 53.7159C24.9105 53.2546 19.4124 51.6875 16.9497 49.1094L4.41123 52.9221Z" fill="#006EAD"/>
<path d="M27.3516 53.7159C29.366 54.1126 31.3335 54.2387 33.218 54.1576C33.3523 54.1518 33.4862 54.145 33.6197 54.1371M27.3516 53.7159C29.5096 54.1408 31.6137 54.2553 33.6197 54.1371M27.3516 53.7159C24.9105 53.2546 19.4124 51.6875 16.9497 49.1094L4.41123 52.9221C3.83021 53.0104 2.58251 53.027 2.23991 52.3873C1.81165 51.5875 1.81402 51.1039 2.27633 50.2961C2.64618 49.6498 7.25661 43.2738 9.51559 40.1666C7.00077 34.8937 4.36885 21.969 13.9598 12.4539C23.5507 2.93877 35.1761 4.24494 39.79 6.08742C43.2077 7.05184 50.9287 11.0692 54.4709 19.4231C58.013 27.777 56.5345 34.8369 55.3524 37.3226C54.8293 38.9537 52.969 43.1889 49.7126 47.0818C48.7126 48.2774 47.0731 49.6162 44.9606 50.8062C41.9704 52.4906 38.0327 53.877 33.6197 54.1371" stroke="black" stroke-width="2.67324"/>
<path d="M29.227 3.6856C43.4273 2.19002 56.1288 12.3932 57.61 26.4571C59.0912 40.521 48.7939 53.1455 34.5937 54.6411C20.3934 56.1366 7.692 45.9344 6.21073 31.8705C4.72951 17.8066 15.0267 5.18118 29.227 3.6856Z" fill="#006EAD" stroke="black" stroke-width="1.78216"/>
<path d="M7.81519 45.2945L10.4884 41.2847C11.3795 42.7698 14.2755 46.3193 16.0577 47.745L10.934 49.3044L7.81519 45.2945Z" fill="#006EAD" stroke="#006EAD" stroke-width="0.44554"/>
</svg>
